<svg xmlns="http://www.w3.org/2000/svg" xmlns:xlink="http://www.w3.org/1999/xlink" width="100.4" height="43.431" viewBox="0 0 100.4 43.431"><defs><clipPath id="clip-path"><rect width="100.4" height="43.431"></rect></clipPath></defs><g id="Repeti&#xE7;&#xE3;o_de_grade_1" data-name="Repeti&#xE7;&#xE3;o de grade 1" clip-path="url(#clip-path)"><g transform="translate(-910.2 -1276.039)"><path id="BATMAN_Prancheta_1" data-name="BATMAN_Prancheta 1" d="M124.28,145.691c-.293-.444-.578-.909-.889-1.353a35.145,35.145,0,0,0-5.809-6.664,22.467,22.467,0,0,0-5.363-3.59,15.221,15.221,0,0,0-5.058-1.411,13.815,13.815,0,0,0-6.06.813,17.475,17.475,0,0,0-2.515,1.148l-.209.107a1.329,1.329,0,0,1-.031-.184,8.035,8.035,0,0,0-2.339-5.318,10.6,10.6,0,0,0-4.034-2.532,18.247,18.247,0,0,0-4.1-.957,30.945,30.945,0,0,0-5.647-.142,44.748,44.748,0,0,0-4.616.5c-1.2.2-2.386.411-3.614.622a1.135,1.135,0,0,1,.033-.235,23.417,23.417,0,0,1,1.477-4.363,31.753,31.753,0,0,1,7.375-10.352,35.13,35.13,0,0,1,7.893-5.567,43.929,43.929,0,0,1,10.076-3.716l1-.235.027.047c-.051.049-.1.1-.158.147a13.522,13.522,0,0,0-2.768,3.023,6.664,6.664,0,0,0-1.06,2.5,4.256,4.256,0,0,0,.822,3.379,7.453,7.453,0,0,0,1.933,1.762,17.106,17.106,0,0,0,3.776,1.8,38.432,38.432,0,0,0,5.109,1.382c1.679.347,3.374.618,5.076.837,1.1.142,2.2.253,3.3.378a2.2,2.2,0,0,1,.275.013c.7-3.505,1.377-7.013,2.124-10.523q1.146,2.91,2.3,5.822h3.941l2.15-5.8h.056q.984,5.238,1.966,10.49c.082,0,.149.016.222.016,1.257-.013,2.512-.1,3.763-.2,1.315-.116,2.624-.275,3.923-.5a29.334,29.334,0,0,0,6.886-1.91,11.883,11.883,0,0,0,3.123-1.913,6.013,6.013,0,0,0,1.917-2.875,5.884,5.884,0,0,0,.064-2.888,11.108,11.108,0,0,0-1.488-3.525c-.258-.422-.544-.826-.82-1.237-.042-.067-.087-.131-.151-.222.118.022.2.033.282.056A50.406,50.406,0,0,1,157.752,106a42.328,42.328,0,0,1,6.169,3.832,30.839,30.839,0,0,1,5.5,5.245,22.77,22.77,0,0,1,4.35,8.337,21.82,21.82,0,0,1,.611,3.066c.011.087.011.173.016.282l-1.2-.258c-1.422-.3-2.852-.524-4.294-.7a39.634,39.634,0,0,0-5.825-.3,22.388,22.388,0,0,0-4.627.573,11.729,11.729,0,0,0-4.139,1.788,7.388,7.388,0,0,0-3.008,4.676,10.542,10.542,0,0,0-.209,2.241v.3c-.091-.056-.158-.093-.222-.136a15.659,15.659,0,0,0-6.051-2.444,14.247,14.247,0,0,0-4.1-.142,15.064,15.064,0,0,0-5.389,1.675,21.559,21.559,0,0,0-5.445,4.156,38.232,38.232,0,0,0-5.423,7.253l-.14.222A.142.142,0,0,1,124.28,145.691Z" transform="translate(836.2 1173.779)"></path></g></g></svg>