<svg xmlns="http://www.w3.org/2000/svg" id="Camada_1" data-name="Camada 1" width="512" height="433.83" viewBox="0 0 512 433.83"><title>inimigo</title><g><path fill='#ffff' d="M408.25,297.4a25.85,25.85,0,0,0-15.18-15.68L323.41,255,344,168.55a58.34,58.34,0,0,1-84.18-52.27H12.92A12.92,12.92,0,0,0,0,129.2v149A12.92,12.92,0,0,0,18.22,290l202.39-91.1-9.48,39.8-61.48,86.64L69.7,388.71a25.85,25.85,0,1,0,32.12,40.52l82.84-65.66a25.49,25.49,0,0,0,5-5.3l22.77-32.07L208.89,268c.2-1.75-1.88-8.77,2.78-16l44.49-69.49-32.07,74.81a21.77,21.77,0,0,0-1.71,9.89l7.16,117.28a21.74,21.74,0,0,0,43.4-2.65l-6.85-112.13,30-70.07-16.64,67.84.45,7.36,1.19,19.42,82.2,31.5,31.76,91.74A25.85,25.85,0,1,0,444,400.51Z" transform="translate(0 -1)"></path><path fill='#ffff' d="M510.34,14.43a21.74,21.74,0,0,0-28.4-11.77L381.58,44.19a21.7,21.7,0,0,0-8.14,5.88L355.2,71.18a58.49,58.49,0,0,1,21.24,41.93L403,82.39l95.6-39.56A21.74,21.74,0,0,0,510.34,14.43Z" transform="translate(0 -1)"></path><path fill='#ffff' d="M318.22,160.51A44.23,44.23,0,1,0,275.17,106,44.24,44.24,0,0,0,318.22,160.51Z" transform="translate(0 -1)"></path></g></svg>