<svg xmlns="http://www.w3.org/2000/svg" id="Camada_1" data-name="Camada 1" width="512" height="512" viewBox="0 0 512 512"><title>desastre 2</title><g><path fill='#ffff' d="M271,365.64v30.55l-60,20V377H181v56.45l-.07.14,0,0L141.73,512H0V482H39.78C42.68,477.71,151,388.58,151,225V210h30v65.64Z" transform="translate(0 0)"></path><path fill='#ffff' d="M512,482v30H336.81c-3.36-10.07-32.29-96.87-35.81-107.43V343.46l-11.35-22.69L331,235.31V210h30v15c0,164,108.3,252.69,111.22,257Z" transform="translate(0 0)"></path><path fill='#ffff' d="M276.51,426l-69.87,23.3c-.2.41-31.27,62.56-31.36,62.73H305.19Z" transform="translate(0 0)"></path><path fill='#ffff' d="M260.31,312.53,211,263.21V180H196a45.08,45.08,0,0,1-42.43-30H76a45,45,0,0,1,0-90h53.23c13.33-23,40.3-34.62,65.69-28.29a74.68,74.68,0,0,1,122.16,0C342.51,25.38,369.46,37,382.77,60H436a45,45,0,0,1,0,90H358.43A45.08,45.08,0,0,1,316,180H301v48.44Z" transform="translate(0 0)"></path></g></svg>