<svg xmlns="http://www.w3.org/2000/svg" id="Camada_1" data-name="Camada 1" width="290.07" height="477.87" viewBox="0 0 290.07 477.87"><title>etica</title><g><path fill='#ffff' d="M396.07,203.18l-85.61-64.26a13.07,13.07,0,0,0-7.44-2.39H209a13.21,13.21,0,0,0-7.61,2.56L116,203.2a12.68,12.68,0,0,0-5,10.65,12.35,12.35,0,0,0,5.36,10.24c.55.4,38.09,29.67,58.61,45.92a13.21,13.21,0,0,0,16.73-20.43l-36.27-30.27a8.53,8.53,0,0,1-1.07-12,8,8,0,0,1,1.36-1.3l43.88-33.54a8.53,8.53,0,0,1,13.71,6.75l.09,76.8h85.34l.07-76.8a8.54,8.54,0,0,1,13.72-6.78L356.33,206a8.53,8.53,0,0,1,1.6,12,8.82,8.82,0,0,1-1.3,1.36L320.2,249.75A13.2,13.2,0,0,0,337.07,270c20.52-16.22,58-45.52,58-45.52a13.2,13.2,0,0,0,.92-21.33ZM256,187.73a25.6,25.6,0,1,1,0,51.2H238.93a8.53,8.53,0,0,1,0-17.06H256a8.54,8.54,0,0,0,0-17.07,25.6,25.6,0,1,1,0-51.2h17.07a8.54,8.54,0,0,1,0,17.07H256a8.53,8.53,0,0,0,0,17.06Z" transform="translate(-110.92 -17.07)"></path><path fill='#ffff' d="M315.81,196.45l0,34.76L337.51,213Z" transform="translate(-110.92 -17.07)"></path><path fill='#ffff' d="M196.22,231.21l0-34.76L174.49,213Z" transform="translate(-110.92 -17.07)"></path><path fill='#ffff' d="M164.31,283.43c-5.63-4.47-12.55-9.91-19.63-15.46l-28.78,71.1a16.28,16.28,0,0,0,4.33,18.42,132.13,132.13,0,0,0,52.68,25.42l19.94-94.6a31.07,31.07,0,0,1-5.54,1.34,30,30,0,0,1-23-6.22Z" transform="translate(-110.92 -17.07)"></path><path fill='#ffff' d="M299.36,273.07H212.64a127.74,127.74,0,0,1-2.11,14.17l-1.59,7.56L256,315l47.06-20.18-1.59-7.57A127.91,127.91,0,0,1,299.36,273.07Z" transform="translate(-110.92 -17.07)"></path><path fill='#ffff' d="M171.08,474.33A16.94,16.94,0,0,0,184,494.48l.17,0a17,17,0,0,0,20.26-13l0-.16,41.34-152.18-40.47-17.36Z" transform="translate(-110.92 -17.07)"></path><path fill='#ffff' d="M298.67,76.8V59.73a42.67,42.67,0,0,0-85.34,0V76.8a42.67,42.67,0,0,0,85.34,0Z" transform="translate(-110.92 -17.07)"></path><path fill='#ffff' d="M256,356.8l-9.67,35.61c6.38.11,13,.11,19.35,0Z" transform="translate(-110.92 -17.07)"></path><path fill='#ffff' d="M347.69,283.43a30,30,0,0,1-23,6.22,31.18,31.18,0,0,1-5.55-1.34l19.95,94.6a132.16,132.16,0,0,0,52.7-25.36,16.31,16.31,0,0,0,4.33-18.46L367.31,268c-7.06,5.56-14,11-19.62,15.48Z" transform="translate(-110.92 -17.07)"></path><path fill='#ffff' d="M266.18,329.19,307.4,480.91a17.33,17.33,0,0,0,16.78,14,13.6,13.6,0,0,0,3.37-.36,17.09,17.09,0,0,0,11-7.44,16.75,16.75,0,0,0,2.33-12.74L306.65,311.83Z" transform="translate(-110.92 -17.07)"></path></g></svg>