<svg xmlns="http://www.w3.org/2000/svg" id="Camada_1" data-name="Camada 1" width="425.33" height="475.09" viewBox="0 0 425.33 475.09"><title>reputacao</title><path fill='#ffff' d="M109.05,383.46l6.3-25.76-6.3-18.31Z" transform="translate(-1 0)"></path><path fill='#ffff' d="M47.83,203.71,1.18,406.34a6.81,6.81,0,0,0,6.64,8.34h40Z" transform="translate(-1 0)"></path><path fill='#ffff' d="M102.08,149.41A33.58,33.58,0,1,0,84,87.56L94.2,148.47A33.53,33.53,0,0,0,102.08,149.41Z" transform="translate(-1 0)"></path><path fill='#ffff' d="M197.68,63.23a15.61,15.61,0,0,0-17.79,13l-9.07,59-39.76,26H86.65c-.88-5.28-24-142.91-24.86-148.2A15.59,15.59,0,1,0,31,18.18L59,184.89V455.65a19.45,19.45,0,0,0,19.43,19.44h0a19.44,19.44,0,0,0,19.44-19.44V300.27h9.51L127,357.17l-18.85,77a19.44,19.44,0,0,0,37.76,9.24l20.22-82.56a19.45,19.45,0,0,0-.51-10.95l-20.8-60.4v-100c6.2-4,44.32-29,48.9-32a15.64,15.64,0,0,0,6.89-10.68L210.72,81A15.59,15.59,0,0,0,197.68,63.23Zm-95.6,160.88a18.74,18.74,0,1,1,18.74-18.74A18.74,18.74,0,0,1,102.08,224.11Z" transform="translate(-1 0)"></path><path fill='#ffff' d="M426.07,382.35,381.49,213l21,127.61a21.42,21.42,0,0,1-9.93,22.14c0,.1,7.25,15-3.33,29.47h29.25A7.83,7.83,0,0,0,426.07,382.35Z" transform="translate(-1 0)"></path><path fill='#ffff' d="M273.33,392.1V365.64h-3.05c-13.08,0-22.83-12.1-20.51-25.07l1.78-10.84a25.22,25.22,0,0,1-12.3.32l-13.77,52.29a7.85,7.85,0,0,0,7.58,9.84h40.27Z" transform="translate(-1 0)"></path><path fill='#ffff' d="M358.67,110c0-18.77-14.57-34-32.53-34S293.6,91.26,293.6,110s14.57,34,32.54,34S358.67,128.8,358.67,110Z" transform="translate(-1 0)"></path><path fill='#ffff' d="M390.89,342.58,364.06,179.63c14.41-16.25,32.13-36.25,40.12-45.25a15.44,15.44,0,0,0,3.87-10.22V42.35a15.4,15.4,0,0,0-30.8,0v76c-11.73,13.23-33.32,37.54-33.32,37.54H294.6a34.44,34.44,0,0,0-33.3,25.64L229.85,300.91a15.4,15.4,0,1,0,29.79,7.85l19.5-74L261.38,342.58c-1.08,5.84,3.23,11.28,8.9,11.28h14.83V456.55a18.13,18.13,0,0,0,36.25,0V406.13L370.16,392a18.13,18.13,0,0,0,11.73-24.23l-5.63-13.87H382C387.69,353.86,392,348.43,390.89,342.58Zm-69.54,25.81V353.86h15.79l3.61,8.89Zm19.34-142.15H311.58a3.54,3.54,0,0,1-3.07-5.3l14.55-25.41a3.55,3.55,0,0,1,6.15,0l14.56,25.41A3.54,3.54,0,0,1,340.69,226.24Z" transform="translate(-1 0)"></path></svg>