<svg xmlns="http://www.w3.org/2000/svg" id="Camada_1" data-name="Camada 1" width="483.31" height="464" viewBox="0 0 483.31 464"><title>desastre</title><g id="SOLID"><path fill='#ffd500' d="M200,80h16v40H200Z" transform="translate(-12.69 -16)"></path><path fill='#ffd500' d="M120,176h16v40H120Z" transform="translate(-12.69 -16)"></path><path fill='#ffd500' d="M120,80h16v40H120Z" transform="translate(-12.69 -16)"></path><path fill='#ffd500' d="M290.6,196.51l16.83-33.68,17.68,8.85-16.83,33.67Z" transform="translate(-12.69 -16)"></path><path fill='#ffd500' d="M410,243l-28.58,5.71L332.69,200h48.89l24.93-16.62,29.2,7.3,41.56-83.1L331.75,34.82,272,161.79v36.32l28.42-56.84,46.31,23.15-31.15,62.31L272,204.94v22.12l34.73,17.36-31.15,62.31L272,304.94V376h74.94Zm40.78-126.55-31.15,62.31-46.31-23.15,31.15-62.31Zm-141.46,7.16,31.15-62.31,46.31,23.15-31.15,62.31Zm23.15,129.69,46.31,23.15-31.15,62.31-46.31-23.15Z" transform="translate(-12.69 -16)"></path><path fill='#ffd500' d="M200,176h16v40H200Z" transform="translate(-12.69 -16)"></path><path fill='#ffd500' d="M272,244.94v33.17l13.27-26.53Z" transform="translate(-12.69 -16)"></path><path fill='#ffd500' d="M330.62,116.54l16.84-33.67,17.68,8.84L348.3,125.38Z" transform="translate(-12.69 -16)"></path><path fill='#ffd500' d="M322.54,308.5l16.84-33.68,17.68,8.85-16.84,33.67Z" transform="translate(-12.69 -16)"></path><path fill='#ffd500' d="M394.59,148.56l16.84-33.67,17.68,8.84L412.28,157.4Z" transform="translate(-12.69 -16)"></path><path fill='#ffd500' d="M387.31,408l32,32L392,467.31V480h88V424H416V408h64V392H403.31Z" transform="translate(-12.69 -16)"></path><path fill='#ffd500' d="M188.69,456l-24-24,24-24-16-16H32v16H160v16H32v56H176l-5.66-5.66Z" transform="translate(-12.69 -16)"></path><path fill='#ffd500' d="M364.69,408l16-16H243.31l16,16H352v16H243.31l-56,56H376V460.69L396.69,440Z" transform="translate(-12.69 -16)"></path><path fill='#ffd500' d="M208,272v3.31l-16,16V312h24V272Z" transform="translate(-12.69 -16)"></path><path fill='#ffd500' d="M211.31,408l-24,24L200,444.69,236.69,408l-32-32H256V48H80V280h20.69L128,252.69l17.83,17.82L208,243.87V256h24v72H176V307.31L163.31,320h-24l-16,16H80v40h99.31ZM184,64h48v72H184ZM152,232H104V160h48Zm0-96H104V64h48Zm32,96V160h48v72Z" transform="translate(-12.69 -16)"></path><path fill='#ffd500' d="M463.22,276.09l-7.57,7.58,12.06,3,10.56-21.1-9.94-9.93Z" transform="translate(-12.69 -16)"></path><path fill='#ffd500' d="M416.6,331.53l14.3-7.15,8,16-14.31,7.15Z" transform="translate(-12.69 -16)"></path><path fill='#ffd500' d="M466.26,349.67l11.31-11.31,16,16-11.32,11.31Z" transform="translate(-12.69 -16)"></path><path fill='#ffd500' d="M480,40h16a24,24,0,0,0-24-24V32A8,8,0,0,1,480,40Z" transform="translate(-12.69 -16)"></path><path fill='#ffd500' d="M28.69,88,18.34,98.34l11.32,11.32L51.31,88l-16-16,16-16-16-16L45.66,29.66,34.34,18.34,12.69,40l16,16-16,16Z" transform="translate(-12.69 -16)"></path><path fill='#ffd500' d="M26.32,210.33l16-16,11.31,11.31-16,16Z" transform="translate(-12.69 -16)"></path><path fill='#ffd500' d="M18.31,325.63l11.31-11.32,16,16L34.3,341.62Z" transform="translate(-12.69 -16)"></path><path fill='#ffd500' d="M440,48a24,24,0,0,1,24,24h16a40,40,0,0,0-60-34.64l8,13.85A23.91,23.91,0,0,1,440,48Z" transform="translate(-12.69 -16)"></path></g></svg>