<svg xmlns="http://www.w3.org/2000/svg" id="Camada_1" data-name="Camada 1" width="477.87" height="494.93" fill='#ffff' viewBox="0 0 477.87 494.93"><title>aprendiz</title><g><path fill='#ffff' d="M469.33,375.21v60a8.53,8.53,0,0,1-17.06,0V379.56Z" transform="translate(-17.07)"></path><path fill='#ffff' d="M17.07,178.52V93.87a8.53,8.53,0,0,1,8.53-8.54H401.07a8.53,8.53,0,0,1,8.53,8.54v84.65a8.46,8.46,0,0,1-4.57,7.56c-17.07,9-60.45,24.24-159.2,27a25.6,25.6,0,0,0-24-16.85H204.8a25.59,25.59,0,0,0-24,16.85c-98.76-2.8-142.11-18-159.26-27.09a8.4,8.4,0,0,1-4.51-7.51Z" transform="translate(-17.07)"></path><rect x="179.2" y="213.33" width="34.13" height="51.2" rx="8.53"></rect><path fill='#ffff' d="M96.5,366.93H34.13a8.53,8.53,0,0,1-8.53-8.53V206.57C49.18,216,95,227.65,179.2,230.14V256a25.6,25.6,0,0,0,25.6,25.6h17.07a25.6,25.6,0,0,0,25.6-25.6V230.14c84.25-2.49,130.06-14.14,153.6-23.56V307.13l-97.74-24.91a17.67,17.67,0,0,0-9.16,0l-195,49.7a18.62,18.62,0,0,0-2.65,35.05Z" transform="translate(-17.07)"></path><path fill='#ffff' d="M392.53,477.87a17.06,17.06,0,0,1-17.06,17.06H221.87a17.06,17.06,0,0,1-17.07-17.06V394.78L294,417.51a17.34,17.34,0,0,0,4.7.62,16.33,16.33,0,0,0,4.45-.58l89.37-22.77Z" transform="translate(-17.07)"></path><path fill='#ffff' d="M493.92,351.33,298.39,401l-195-49.68c-.3-.08-1-.26-1-1.47s.73-1.39,1-1.47L299,298.72l195,49.67c.31.09,1,.26,1,1.48S494.24,351.25,493.92,351.33Z" transform="translate(-17.07)"></path><path fill='#ffff' d="M306.35,68.27H289.11c-3.24-16.56-17.15-51.2-75.78-51.2-59.05,0-72.7,34.64-75.86,51.2H120.41c3.32-20,19-68.27,92.92-68.27S302.93,48.3,306.35,68.27Z" transform="translate(-17.07)"></path></g></svg>