<svg xmlns="http://www.w3.org/2000/svg" id="Camada_1" data-name="Camada 1" width="489.35" height="512" viewBox="0 0 489.35 512"><title>perigo</title><g><path fill='#ffff' d="M267.2,115.43h-1.7a17.79,17.79,0,0,0-17.76,17.77v90.51h35.53v-92.2A16.09,16.09,0,0,0,267.2,115.43Z" transform="translate(-1)"></path><path fill='#ffff' d="M348.81,223.7V150a17.77,17.77,0,0,0-35.54,0V223.7Z" transform="translate(-1)"></path><path fill='#ffff' d="M200,132.2A17.78,17.78,0,0,0,182.2,150V260.41A17.79,17.79,0,0,0,200,278.18l.42,0a60.54,60.54,0,0,1-.92-10.42,44,44,0,0,1,18.26-35.67V150A17.77,17.77,0,0,0,200,132.2Z" transform="translate(-1)"></path><path fill='#ffff' d="M438.42,170.14l5.21-81.21-78.86-20.1L321.3,0,245.67,30.15,170.05,0,126.58,68.83,47.72,88.93l5.2,81.21L1,232.78,56.73,300H86.66V172a47.73,47.73,0,0,1,70.05-42.23,47.73,47.73,0,0,1,67.68-20.8,47.77,47.77,0,0,1,41.11-23.5h1.7a46.09,46.09,0,0,1,40,23.19A47.74,47.74,0,0,1,378.81,150V223.7h2.83a36,36,0,0,1,35.95,36V300h17l55.73-67.23Z" transform="translate(-1)"></path><path fill='#ffff' d="M134.43,154.19A17.79,17.79,0,0,0,116.66,172v88.45a17.77,17.77,0,1,0,35.54,0V172A17.79,17.79,0,0,0,134.43,154.19Z" transform="translate(-1)"></path><path fill='#ffff' d="M380.9,253.7H243.55a14,14,0,0,0-14,13.95,30,30,0,0,0,29.91,29.91h73.81V340.1l-7,4.38c-.28.18-31.87,20.52-31.87,47.76H264.61c0-30.53,21.32-53.38,34.92-64.85h-40a59.62,59.62,0,0,1-45.82-21.47,47.38,47.38,0,0,1-46-11,47.37,47.37,0,0,1-50.25,9.56v92.13a55.74,55.74,0,0,0,55.67,55.67h27.15v29.83H173.12a85.9,85.9,0,0,1-15.58-1.45V512H328.17V480.52a105.74,105.74,0,0,1-18.09,1.55H298V452.24h12.07a76.82,76.82,0,0,0,76.73-76.74V259.62A5.92,5.92,0,0,0,380.9,253.7Z" transform="translate(-1)"></path></g></svg>