<svg xmlns="http://www.w3.org/2000/svg" id="Camada_1" data-name="Camada 1" width="444.09" height="512" viewBox="0 0 444.09 512"><title>defesa</title><g><path fill='#ffd500' d="M207.1,299.21a68.72,68.72,0,0,1,0-134.16V86H161c-18.7,30-37.14,50.3-74.09,69.8v33c5.13,88,49.74,165.44,120.21,209.83Z" transform="translate(0)"></path><path fill='#ffd500' d="M260.89,232.13A38.85,38.85,0,1,0,222.05,271,38.89,38.89,0,0,0,260.89,232.13Z" transform="translate(0)"></path><path fill='#ffd500' d="M283.11,86H237v79a68.72,68.72,0,0,1,0,134.16v99.46c70.47-44.39,115.08-121.8,120.21-209.83v-33C320.26,136.32,301.82,116,283.11,86Z" transform="translate(0)"></path><path fill='#ffd500' d="M434.07,98.24A150.47,150.47,0,0,1,342.84,9.61L339.17,0H104.93l-3.68,9.61A150.44,150.44,0,0,1,10,98.24L0,101.73v69.43A371.32,371.32,0,0,0,200.81,501l21.24,11,21.23-11A371.32,371.32,0,0,0,444.09,171.16V101.73Zm-47,91.88c-2.81,49.57-17.14,97.49-41.43,138.58A282.58,282.58,0,0,1,239.72,431.78l-.39.22-17.28,8.93-17.68-9.15A282.58,282.58,0,0,1,98.46,328.7c-24.29-41.09-38.62-89-41.43-138.59l0-.84v-52l8.38-4.1c39.5-19.31,54.87-37.15,74.38-69.81l4.35-7.28H300l4.35,7.28c19.51,32.66,34.88,50.5,74.38,69.81l8.38,4.1Z" transform="translate(0)"></path></g></svg>